<?xml version="1.0" encoding="utf-8"?>
<!-- Generator: Adobe Illustrator 22.0.0, SVG Export Plug-In . SVG Version: 6.00 Build 0)  -->
<svg version="1.1" id="Ebene_1" xmlns="http://www.w3.org/2000/svg" xmlns:xlink="http://www.w3.org/1999/xlink" x="0px" y="0px"
	 viewBox="0 0 28.9 28.8" style="enable-background:new 0 0 28.9 28.8;" xml:space="preserve">
<style type="text/css">
	.st0{fill:#FFFFFF;}
	.st1{fill:none;stroke:#020203;stroke-width:1.0684;stroke-miterlimit:10;}
	.st2{fill:none;stroke:#020203;stroke-width:0.8619;stroke-miterlimit:10;}
	.st3{fill:none;stroke:#000000;stroke-width:1.0797;}
</style>
<g>
	<path d="M20.6,11.3l0,0.5c0,0,0,2.4,0,2.5v0.5h4.8l-1.9-3.6H20.6z M21.7,13.8c0-0.4,0-1,0-1.5H23l0.8,1.5H21.7z"/>
	<path d="M27.2,14.3L25,9.8h-5.7V7.2H4.9v5.7H1.7v1.1h3.2v0.8H2.8v1.1h2.1v0.9H1.2v1.1h3.6v1.9h2.7c0,0,0,0.1,0,0.1
		c0,1.4,1.1,2.5,2.5,2.5s2.5-1.1,2.5-2.5c0,0,0-0.1,0-0.1h8.1c0,0,0,0.1,0,0.1c0,1.4,1.1,2.5,2.5,2.5s2.5-1.1,2.5-2.5
		c0,0,0-0.1,0-0.1h1.6V14.3z M10.1,21.4c-0.9,0-1.6-0.7-1.6-1.6c0,0,0-0.1,0-0.1h3.2c0,0,0,0.1,0,0.1C11.7,20.7,11,21.4,10.1,21.4z
		 M8.9,18.6c0.3-0.3,0.7-0.4,1.1-0.4c0.4,0,0.8,0.2,1.1,0.4H8.9z M18.2,18.6h-6c-0.4-0.8-1.2-1.3-2.2-1.3s-1.8,0.5-2.2,1.3h-2V8.2
		h12.3V18.6z M23.1,21.4c-0.9,0-1.6-0.7-1.6-1.6c0,0,0-0.1,0-0.1h3.2c0,0,0,0.1,0,0.1C24.7,20.7,24,21.4,23.1,21.4z M22,18.6
		c0.3-0.3,0.7-0.4,1.1-0.4c0.4,0,0.8,0.2,1.1,0.4H22z M26.1,18.6h-0.8c-0.4-0.8-1.2-1.3-2.2-1.3s-1.8,0.5-2.2,1.3h-1.6l0-7.8h5
		l1.8,3.8V18.6z"/>
</g>
<path class="st0" d="M24.8,19.8c0,0.9-0.7,1.7-1.7,1.7s-1.7-0.7-1.7-1.7c0-0.9,0.7-1.7,1.7-1.7S24.8,18.9,24.8,19.8"/>
<path class="st0" d="M11.7,19.8c0,0.9-0.7,1.7-1.7,1.7c-0.9,0-1.7-0.7-1.7-1.7c0-0.9,0.7-1.7,1.7-1.7C11,18.1,11.7,18.9,11.7,19.8"
	/>
</svg>
